<?xml version="1.0" encoding="UTF-8" standalone="no"?>
<svg
   xmlns:dc="http://purl.org/dc/elements/1.1/"
   xmlns:cc="http://creativecommons.org/ns#"
   xmlns:rdf="http://www.w3.org/1999/02/22-rdf-syntax-ns#"
   xmlns:svg="http://www.w3.org/2000/svg"
   xmlns="http://www.w3.org/2000/svg"
   xmlns:sodipodi="http://sodipodi.sourceforge.net/DTD/sodipodi-0.dtd"
   xmlns:inkscape="http://www.inkscape.org/namespaces/inkscape"
   height="48"
   width="48"
   viewBox="0 0 48 48"
   version="1.1"
   id="svg7"
   sodipodi:docname="Adobe-Dreamweaver.svg"
   inkscape:version="0.92.4 (5da689c313, 2019-01-14)">
  <metadata
     id="metadata13">
    <rdf:RDF>
      <cc:Work
         rdf:about="">
        <dc:format>image/svg+xml</dc:format>
        <dc:type
           rdf:resource="http://purl.org/dc/dcmitype/StillImage" />
      </cc:Work>
    </rdf:RDF>
  </metadata>
  <defs
     id="defs11" />
  <sodipodi:namedview
     pagecolor="#ffffff"
     bordercolor="#666666"
     borderopacity="1"
     objecttolerance="10"
     gridtolerance="10"
     guidetolerance="10"
     inkscape:pageopacity="0"
     inkscape:pageshadow="2"
     inkscape:window-width="1920"
     inkscape:window-height="1023"
     id="namedview9"
     showgrid="false"
     inkscape:zoom="4.9166667"
     inkscape:cx="-9.3559322"
     inkscape:cy="24"
     inkscape:window-x="-4"
     inkscape:window-y="-4"
     inkscape:window-maximized="1"
     inkscape:current-layer="svg7" />
  <g
     id="g5">
    <rect
       height="48"
       width="48"
       fill="#0C1800"
       id="rect2" />
    <path
       id="path1"
       transform="rotate(0,24,24) translate(11,16.4559361505318) scale(0.812500242143942,0.812500242143942)  "
       fill="#73FB00"
       d="M22.384391,4.44497C22.410392,4.4439706 22.43743,4.4439706 22.465446,4.4459695 22.915399,4.4799694 25.115415,4.44497 25.115415,4.44497 25.115415,4.44497 25.374448,4.5069698 25.442441,5.0669674 25.510434,5.6269611 27.122437,14.570905 27.122437,14.570905L28.720462,4.9429678C28.720462,4.9429678 28.747441,4.4369706 29.335454,4.44497 29.921454,4.4519695 31.79243,4.44497 31.79243,4.44497 31.79243,4.44497 32.093453,4.4939693 31.970469,4.9299673 31.847423,5.3669647 28.85645,17.958883 28.85645,17.958883 28.85645,17.958883 28.733462,18.395876 28.337405,18.395876L25.524411,18.395876C25.524411,18.395876 25.182431,18.408876 25.128415,18.012874 25.074399,17.616882 23.448419,8.1669482 23.448419,8.1669482L21.345448,18.067875C21.345448,18.067875,21.250417,18.395876,20.922414,18.395876L18.150435,18.395876C18.150435,18.395876,17.808394,18.367876,17.685407,17.903883L14.817421,4.8759664C14.817421,4.8759664 14.61338,4.4659694 15.268411,4.452969 15.924417,4.4389695 18.300399,4.452969 18.300399,4.452969 18.300399,4.452969 18.532393,4.452969 18.627425,4.9439672 18.723433,5.4359645 20.170398,14.680904 20.170398,14.680904L21.932425,4.8069667C21.932425,4.8069667,22.004447,4.4609684,22.384391,4.44497z M4.9303784,2.8039817C4.2013731,2.8069803,3.6883716,2.9229807,3.6883719,2.9229807L3.6883719,15.636892C8.0854139,16.128893 9.212369,13.328909 9.212369,13.328909 9.212369,13.328909 10.762421,9.3139361 9.3963899,5.6269611 8.5003929,3.2069792 6.3224096,2.7989811 4.9303784,2.8039817z M5.2483721,0C5.7074184,4.655044E-08 6.0473847,0.0069999691 6.1603613,0.027999871 6.6114116,0.10999991 12.326388,0.075000304 13.494421,6.7939528 14.661415,13.512906 11.219392,16.17589 11.219392,16.17589 11.219392,16.17589 8.8233909,18.354875 5.3543901,18.517877 1.8853896,18.681877 0.80640803,18.408876 0.67036043,18.381876 0.5343738,18.354875 -0.015615012,18.217876 0.00037622751,17.548881 0.014353307,16.878887 0.0013527939,0.53299743 0.0013527899,0.53299749 0.0013527939,0.53299743 -0.067617066,0.12300032 0.77936922,0.096000175 1.4143804,0.075999747 3.8703787,0.00099949047 5.2483721,0z" />
  </g>
  <rect
     style="fill:none;fill-opacity:1;stroke:#73fb00;stroke-opacity:1;stroke-width:7;stroke-miterlimit:4;stroke-dasharray:none"
     id="rect17"
     width="48"
     height="48"
     x="0"
     y="0" />
</svg>
