<?xml version="1.0" encoding="UTF-8" standalone="no"?>
<!-- Created with Inkscape (http://www.inkscape.org/) -->
<svg xmlns:dc="http://purl.org/dc/elements/1.1/" xmlns:cc="http://creativecommons.org/ns#" xmlns:rdf="http://www.w3.org/1999/02/22-rdf-syntax-ns#" xmlns:svg="http://www.w3.org/2000/svg" xmlns="http://www.w3.org/2000/svg" xmlns:sodipodi="http://sodipodi.sourceforge.net/DTD/sodipodi-0.dtd" xmlns:inkscape="http://www.inkscape.org/namespaces/inkscape" id="svg10737" version="1.1" inkscape:version="0.48.1 " width="356.25" height="240" xml:space="preserve" sodipodi:docname="Cow__Hereford.pdf"><metadata id="metadata10743"><rdf:RDF><cc:Work rdf:about=""><dc:format>image/svg+xml</dc:format><dc:type rdf:resource="http://purl.org/dc/dcmitype/StillImage"/><dc:title/></cc:Work></rdf:RDF></metadata><defs id="defs10741"/><sodipodi:namedview pagecolor="#ffffff" bordercolor="#666666" borderopacity="1" objecttolerance="10" gridtolerance="10" guidetolerance="10" inkscape:pageopacity="0" inkscape:pageshadow="2" inkscape:window-width="640" inkscape:window-height="480" id="namedview10739" showgrid="false" inkscape:zoom="1.2125" inkscape:cx="178.125" inkscape:cy="120" inkscape:window-x="0" inkscape:window-y="0" inkscape:window-maximized="0" inkscape:current-layer="g10745"/><g id="g10745" inkscape:groupmode="layer" inkscape:label="Cow__Hereford" transform="matrix(1.25,0,0,-1.25,0,240)"><g id="g10747" transform="scale(0.24,0.24)"><path d="m 333.332,256.25 c 6.25,-12.5 20.836,-37.5 16.668,-58.332 -4.168,-20.836 2.082,-29.168 10.418,-37.5 8.332,-8.336 0,-27.086 8.332,-29.168 8.332,-2.082 2.082,-10.418 -6.25,-16.668 -8.332,-6.25 4.168,-20.832 -10.418,-33.332 -14.582,-14.582 2.086,-10.418 18.75,-14.582 16.668,-4.168 27.086,-2.086 25,8.332 -2.082,10.418 4.168,8.332 12.5,18.75 8.336,10.418 -2.082,4.168 -4.164,29.168 -2.086,25 2.082,22.914 10.414,35.414 8.336,12.5 -4.164,29.168 2.086,50 6.25,20.836 -52.086,56.25 -83.336,47.918" style="fill:#ffffff;fill-opacity:1;fill-rule:nonzero;stroke:none" id="path10749"/><path d="m 333.332,256.25 c 6.25,-12.5 20.836,-37.5 16.668,-58.332 -4.168,-20.836 2.082,-29.168 10.418,-37.5 8.332,-8.336 0,-27.086 8.332,-29.168 8.332,-2.082 2.082,-10.418 -6.25,-16.668 -8.332,-6.25 4.168,-20.832 -10.418,-33.332 -14.582,-14.582 2.086,-10.418 18.75,-14.582 16.668,-4.168 27.086,-2.086 25,8.332 -2.082,10.418 4.168,8.332 12.5,18.75 8.336,10.418 -2.082,4.168 -4.164,29.168 -2.086,25 2.082,22.914 10.414,35.414 8.336,12.5 -4.164,29.168 2.086,50 6.25,20.836 -52.086,56.25 -83.336,47.918 z" style="fill:none;stroke:#000000;stroke-opacity:1;stroke-width:6.25;stroke-linecap:butt;stroke-linejoin:miter;stroke-miterlimit:10;stroke-dasharray:none" id="path10751"/><path d="m 352.082,75 c 6.25,1.043 34.375,1.043 38.543,-5.207 4.168,-6.25 5.207,-10.418 -2.082,-12.5 -7.293,-2.086 -35.418,4.164 -40.625,6.25 C 342.707,65.625 343.75,75 352.082,75" style="fill:#ffffff;fill-opacity:1;fill-rule:nonzero;stroke:none" id="path10753"/><path d="m 450,56.25 c -18.75,4.168 -43.75,-12.5 -52.082,2.082 10.414,12.5 14.582,25 27.082,25 -14.582,8.336 0,39.586 0,56.25 0,16.668 -26.012,41.859 -14.582,54.168 27.082,29.168 52.082,-4.168 66.664,-8.332 -8.332,-25 -6.707,-68.797 -4.164,-91.668 0.52,-4.6875 0,-10.418 -7.293,-9.8945 6.25,-3.125 8.855,-10.418 0.52,-13.0235 -8.332,-2.6015 -8.332,-5.207 -8.332,-9.375 C 454.688,59.375 454.168,56.25 450,56.25" style="fill:#ffffff;fill-opacity:1;fill-rule:nonzero;stroke:none" id="path10755"/><path d="m 450,56.25 c -18.75,4.168 -43.75,-12.5 -52.082,2.082 10.414,12.5 14.582,25 27.082,25 -14.582,8.336 0,39.586 0,56.25 0,16.668 -26.012,41.859 -14.582,54.168 27.082,29.168 52.082,-4.168 66.664,-8.332 -8.332,-25 -6.707,-68.797 -4.164,-91.668 0.52,-4.6875 0,-10.418 -7.293,-9.8945 6.25,-3.125 8.855,-10.418 0.52,-13.0235 -8.332,-2.6015 -8.332,-5.207 -8.332,-9.375 C 454.688,59.375 454.168,56.25 450,56.25 z" style="fill:none;stroke:#000000;stroke-opacity:1;stroke-width:6.25;stroke-linecap:butt;stroke-linejoin:round;stroke-miterlimit:10;stroke-dasharray:none" id="path10757"/><path d="m 404.168,59.375 c 7.289,-1.043 37.5,11.457 51.039,4.168 13.543,-7.293 20.836,-7.293 10.418,-14.586 -10.418,-7.289 -47.918,-7.289 -58.332,-5.207 -10.418,2.082 -18.75,9.375 -3.125,15.625" style="fill:#ffffff;fill-opacity:1;fill-rule:nonzero;stroke:none" id="path10759"/><path d="M 937.5,64.582 C 939.582,54.168 931.25,43.75 920.832,45.832 910.418,47.918 885.418,35.418 881.25,50 c 6.25,22.918 27.082,60.418 39.582,70.832 -2.082,10.418 0,39.586 2.086,54.168 18.75,12.5 43.75,-12.5 41.664,-27.082 -2.082,-14.586 -12.5,-37.5 -10.414,-47.918 2.082,-10.418 14.582,-10.418 2.082,-16.668 -2.605,1.043 -5.207,-1.039 -6.25,-4.164 -1.043,-3.125 -2.605,-6.25 -6.77,-7.8125 -0.523,-2.086 -3.125,-5.211 -5.73,-6.7735" style="fill:#ffffff;fill-opacity:1;fill-rule:nonzero;stroke:none" id="path10761"/><path d="M 937.5,64.582 C 939.582,54.168 931.25,43.75 920.832,45.832 910.418,47.918 885.418,35.418 881.25,50 c 6.25,22.918 27.082,60.418 39.582,70.832 -2.082,10.418 0,39.586 2.086,54.168 18.75,12.5 43.75,-12.5 41.664,-27.082 -2.082,-14.586 -12.5,-37.5 -10.414,-47.918 2.082,-10.418 14.582,-10.418 2.082,-16.668 -2.605,1.043 -5.207,-1.039 -6.25,-4.164 -1.043,-3.125 -2.605,-6.25 -6.77,-7.8125 -0.523,-2.086 -3.125,-5.211 -5.73,-6.7735 z" style="fill:none;stroke:#000000;stroke-opacity:1;stroke-width:6.25;stroke-linecap:butt;stroke-linejoin:miter;stroke-miterlimit:10;stroke-dasharray:none" id="path10763"/><path d="m 930.207,38.0195 0,14.586 -44.269,-1.043 -4.688,-11.9805 48.957,-1.5625" style="fill:#ffffff;fill-opacity:1;fill-rule:nonzero;stroke:none" id="path10765"/><path d="m 1058.33,75 c -10.41,-18.75 -27.08,-29.168 -41.66,-29.168 -14.59,0 -52.088,0 -35.42,12.5 16.668,12.5 27.08,37.5 31.25,47.918 4.17,10.418 -6.25,64.582 -6.25,79.168 12.5,14.582 33.33,-6.25 52.08,-16.668 1.05,-3.645 2.09,-11.98 2.09,-23.437 0,-11.458 -0.53,-17.708 0,-22.395 1.56,1.039 4.69,1.039 3.12,-4.688 -1.56,-5.73 -0.52,-14.062 -1.04,-21.355 2.08,0.5195 2.61,-5.207 1.04,-9.375 -1.56,-4.168 -3.12,-10.9375 -5.21,-12.5" style="fill:#ffffff;fill-opacity:1;fill-rule:nonzero;stroke:none" id="path10767"/><path d="m 1058.33,75 c -10.41,-18.75 -27.08,-29.168 -41.66,-29.168 -14.59,0 -52.088,0 -35.42,12.5 16.668,12.5 27.08,37.5 31.25,47.918 4.17,10.418 -6.25,64.582 -6.25,79.168 12.5,14.582 33.33,-6.25 52.08,-16.668 1.05,-3.645 2.09,-11.98 2.09,-23.437 0,-11.458 -0.53,-17.708 0,-22.395 1.56,1.039 4.69,1.039 3.12,-4.688 -1.56,-5.73 -0.52,-14.062 -1.04,-21.355 2.08,0.5195 2.61,-5.207 1.04,-9.375 -1.56,-4.168 -3.12,-10.9375 -5.21,-12.5 z" style="fill:none;stroke:#000000;stroke-opacity:1;stroke-width:6.25;stroke-linecap:butt;stroke-linejoin:miter;stroke-miterlimit:10;stroke-dasharray:none" id="path10769"/><path d="m 983.855,44.2695 c 0.52,3.125 -0.523,3.125 3.645,5.7305 12.035,7.5234 32.71,-4.6211 31.25,-3.6445 3.9,-2.6055 0,-3.125 0,-5.7305 0,-2.6055 -27.605,0.5195 -34.895,3.6445" style="fill:#ffffff;fill-opacity:1;fill-rule:nonzero;stroke:none" id="path10771"/><path d="m 1077.08,312.5 c -2.08,-8.332 -10.41,-12.5 -8.33,-52.082 2.08,-39.586 20.83,-18.75 14.58,-56.25 -6.25,-37.5 -12.5,-37.5 -4.16,-50 2.08,14.582 8.33,18.75 6.25,6.25 -2.09,-12.5 2.08,-35.418 10.41,-52.086 2.09,6.25 6.25,10.418 6.25,18.75 4.17,-8.332 6.25,-14.582 4.17,-20.832 12.5,16.668 29.17,60.418 25,79.168 -4.17,18.75 -2.08,20.832 2.08,31.25 4.17,10.414 -10.41,25 -16.66,37.5 -6.25,12.5 -4.17,35.414 -12.5,54.164 -8.34,18.75 -27.09,4.168 -27.09,4.168" style="fill:#ffffff;fill-opacity:1;fill-rule:nonzero;stroke:none" id="path10773"/><path d="m 1077.08,312.5 c -2.08,-8.332 -10.41,-12.5 -8.33,-52.082 2.08,-39.586 20.83,-18.75 14.58,-56.25 -6.25,-37.5 -12.5,-37.5 -4.16,-50 2.08,14.582 8.33,18.75 6.25,6.25 -2.09,-12.5 2.08,-35.418 10.41,-52.086 2.09,6.25 6.25,10.418 6.25,18.75 4.17,-8.332 6.25,-14.582 4.17,-20.832 12.5,16.668 29.17,60.418 25,79.168 -4.17,18.75 -2.08,20.832 2.08,31.25 4.17,10.414 -10.41,25 -16.66,37.5 -6.25,12.5 -4.17,35.414 -12.5,54.164 -8.34,18.75 -27.09,4.168 -27.09,4.168 z" style="fill:none;stroke:#000000;stroke-opacity:1;stroke-width:6.25;stroke-linecap:butt;stroke-linejoin:miter;stroke-miterlimit:10;stroke-dasharray:none" id="path10775"/><path d="m 493.75,241.668 c 10.418,6.25 37.5,33.332 62.5,27.082 25,-6.25 104.168,8.332 147.918,-29.168 18.75,14.586 60.414,50 93.75,56.25 33.332,6.25 52.082,14.586 68.75,12.5 4.164,-16.664 2.082,-52.082 29.164,-77.082 27.086,-25 22.918,-25 41.668,-37.5 25,37.5 116.67,102.082 18.75,166.668 -97.918,64.582 -87.5,60.414 -302.082,8.332 -39.586,16.668 -181.25,112.5 -185.418,37.5 -4.168,-75 10.418,-145.832 25,-164.582" style="fill:#ffffff;fill-opacity:1;fill-rule:nonzero;stroke:none" id="path10777"/><path d="m 493.75,241.668 c 10.418,6.25 37.5,33.332 62.5,27.082 25,-6.25 104.168,8.332 147.918,-29.168 18.75,14.586 60.414,50 93.75,56.25 33.332,6.25 52.082,14.586 68.75,12.5 4.164,-16.664 2.082,-52.082 29.164,-77.082 27.086,-25 22.918,-25 41.668,-37.5 25,37.5 116.67,102.082 18.75,166.668 -97.918,64.582 -87.5,60.414 -302.082,8.332 -39.586,16.668 -181.25,112.5 -185.418,37.5 -4.168,-75 10.418,-145.832 25,-164.582 z" style="fill:none;stroke:#000000;stroke-opacity:1;stroke-width:6.25;stroke-linecap:butt;stroke-linejoin:round;stroke-miterlimit:10;stroke-dasharray:none" id="path10779"/><path d="M 118.75,735.418 C 102.082,733.332 62.5,741.668 35.418,700 c 12.5,0 50,12.5 70.832,-6.25 4.168,12.5 6.25,35.418 12.5,41.668" style="fill:#ffffff;fill-opacity:1;fill-rule:nonzero;stroke:none" id="path10781"/><path d="M 118.75,735.418 C 102.082,733.332 62.5,741.668 35.418,700 c 12.5,0 50,12.5 70.832,-6.25 4.168,12.5 6.25,35.418 12.5,41.668 z" style="fill:none;stroke:#000000;stroke-opacity:1;stroke-width:6.25;stroke-linecap:butt;stroke-linejoin:miter;stroke-miterlimit:10;stroke-dasharray:none" id="path10783"/><path d="m 89.582,639.582 c 4.168,-16.664 -6.25,-54.164 -18.75,-66.664 -12.5,-12.5 -6.25,-31.25 2.086,-39.586 C 81.25,525 93.75,512.5 116.668,512.5 c 22.914,0 22.914,-2.082 33.332,4.168 12.5,-14.586 29.168,-41.668 50,-43.75 20.832,-2.086 33.332,-6.25 50,-43.75 16.668,-37.5 10.418,-102.086 27.082,-122.918 16.668,-20.832 45.836,-47.918 60.418,-62.5 75,-96.875 66.668,-22.918 83.332,-4.168 16.668,18.75 29.168,160.418 -18.75,225 -47.914,64.586 125,203.91 148.961,202.867 -12.5,0 -138.543,5.469 -182.293,28.383 -43.75,22.918 -67.754,11.477 -89.582,18.75 -12.5,4.168 -25,6.25 -27.086,14.586 -2.082,8.332 -2.297,24.973 -52.082,18.75 -16.668,-2.086 -18.75,4.164 -33.332,4.164 -14.586,0 -52.086,10.418 -58.336,-14.582 -2.082,-8.332 -4.164,-16.668 -1.039,-18.75 -6.25,-2.082 -14.586,-9.375 -12.5,-20.832 -5.211,-9.375 -4.168,-21.875 -14.586,-36.461 0,-8.332 3.125,-9.375 8.336,-10.414 1.039,-3.125 1.039,-6.25 1.039,-11.461" style="fill:#ffffff;fill-opacity:1;fill-rule:nonzero;stroke:none" id="path10785"/><path d="m 89.582,639.582 c 4.168,-16.664 -6.25,-54.164 -18.75,-66.664 -12.5,-12.5 -6.25,-31.25 2.086,-39.586 C 81.25,525 93.75,512.5 116.668,512.5 c 22.914,0 22.914,-2.082 33.332,4.168 12.5,-14.586 29.168,-41.668 50,-43.75 20.832,-2.086 33.332,-6.25 50,-43.75 16.668,-37.5 10.418,-102.086 27.082,-122.918 16.668,-20.832 45.836,-47.918 60.418,-62.5 75,-96.875 66.668,-22.918 83.332,-4.168 16.668,18.75 29.168,160.418 -18.75,225 -47.914,64.586 125,203.91 148.961,202.867 -12.5,0 -138.543,5.469 -182.293,28.383 -43.75,22.918 -67.754,11.477 -89.582,18.75 -12.5,4.168 -25,6.25 -27.086,14.586 -2.082,8.332 -2.297,24.973 -52.082,18.75 -16.668,-2.086 -18.75,4.164 -33.332,4.164 -14.586,0 -52.086,10.418 -58.336,-14.582 -2.082,-8.332 -4.164,-16.668 -1.039,-18.75 -6.25,-2.082 -14.586,-9.375 -12.5,-20.832 -5.211,-9.375 -4.168,-21.875 -14.586,-36.461 0,-8.332 3.125,-9.375 8.336,-10.414 1.039,-3.125 1.039,-6.25 1.039,-11.461 z" style="fill:none;stroke:#000000;stroke-opacity:1;stroke-width:6.25;stroke-linecap:butt;stroke-linejoin:miter;stroke-miterlimit:10;stroke-dasharray:none" id="path10787"/><path d="m 581.25,667.449 c -13.543,0 -40.875,-0.859 -85.418,3.383 -16.664,0 -114.582,10.418 -152.082,33.336 -19.637,12 -36.457,8.332 -54.168,-12.5 -17.594,-20.695 -47.914,-8.336 -43.75,-18.75 4.168,-10.418 12.5,-16.668 22.918,-18.75 10.418,-2.086 12.5,-12.5 -4.168,-18.75 -16.664,-6.25 -14.582,-37.5 -10.414,-50 C 245.832,575 252.082,558.332 231.25,537.5 c 14.582,4.168 45.832,37.5 35.418,-2.082 10.414,0 29.164,18.75 29.164,29.164 0,10.418 18.75,8.336 12.5,-8.332 -6.25,-16.668 -10.414,-18.75 -22.914,-22.918 -2.086,-12.5 -6.25,-35.414 -18.75,-45.832 -12.5,-10.418 -12.5,-8.332 -2.086,-6.25 10.418,2.082 2.086,-12.5 25,8.332 22.918,20.836 187.5,46.617 291.668,177.867" style="fill:#000000;fill-opacity:1;fill-rule:nonzero;stroke:none" id="path10789"/><path d="m 285.418,502.082 c -11.375,-4.262 -10.418,-37.5 10.414,-35.414 20.836,2.082 -18.816,-25 14.586,-25 16.664,0 4.578,-39.84 35.414,18.75 20.836,39.582 22.918,4.164 20.836,-2.086 -2.086,-6.25 -18.75,-22.914 -6.25,-29.164 12.5,-6.25 -18.75,-16.668 -8.336,-25 10.418,-8.336 -10.414,-25 2.086,-35.418 12.5,-10.418 14.582,-18.75 33.332,-20.832 0,-12.5 -2.082,-31.25 20.832,-29.168 22.918,2.082 64.586,18.75 93.75,56.25 29.168,37.5 35.418,-8.332 16.668,-16.668 10.418,-8.332 4.168,-16.664 25,-10.414 20.832,6.25 171.09,297.137 169.008,320.055 -17.445,-0.266 -104.426,-0.785 -146.613,-0.524 C 524.48,638.285 302.082,508.332 285.418,502.082" style="fill:#000000;fill-opacity:1;fill-rule:nonzero;stroke:none" id="path10791"/><path d="m 535.418,362.5 c -2.086,-10.418 0,-25 -8.336,-31.25 -8.332,-6.25 -8.332,-16.668 14.586,-8.332 22.914,8.332 16.664,0 16.664,-10.418 10.418,-2.082 20.836,0 18.75,-10.418 10.418,-2.082 20.836,20.836 35.418,-4.164 14.582,8.332 18.75,25 43.75,8.332 0,8.332 -4.168,27.082 18.75,25 22.918,-2.082 16.668,-12.5 41.668,-12.5 25,0 22.914,14.582 43.75,29.168 20.832,14.582 33.332,25 62.5,16.664 29.164,-8.332 16.664,2.086 31.25,18.75 14.582,16.668 8.332,18.75 29.164,10.418 14.586,16.668 177.088,172.918 189.588,185.418 2.08,22.914 -12.5,70.832 -60.42,89.582 -47.918,18.75 -58.332,0 -93.75,0 -35.418,0 -198.18,-0.777 -219.012,-0.777 C 683.07,636.723 543.75,383.332 535.418,362.5" style="fill:#000000;fill-opacity:1;fill-rule:nonzero;stroke:none" id="path10793"/><path d="m 404.168,327.082 c 10.414,0 22.914,-12.5 12.5,-27.082 -10.418,-14.582 -2.086,-20.832 -12.5,-20.832 -10.418,0 -16.668,-8.336 -8.336,-18.75 8.336,-10.418 10.418,-6.25 6.25,-18.75 -4.262,-12.777 2.176,-27.5 8.336,-35.418 14.582,-18.75 22.914,-25 20.832,-41.668 -2.082,-16.664 8.332,-18.75 18.75,-8.332 10.418,10.418 18.75,22.918 20.832,14.582 10.418,0 16.668,0 18.75,22.918 2.086,22.918 6.25,29.168 12.5,41.668 6.25,12.5 8.336,22.914 2.086,31.25 8.332,8.332 14.582,20.832 2.082,20.832 -12.5,0 -2.082,-6.25 -8.332,10.418 -6.25,16.664 -4.168,8.332 0,31.25 4.164,22.914 14.582,29.164 -2.086,41.664 -16.664,12.5 -83.332,-35.414 -91.664,-43.75" style="fill:#000000;fill-opacity:1;fill-rule:nonzero;stroke:none" id="path10795"/><path d="m 1068.75,604.168 c 4.17,-18.75 22.92,-106.25 16.67,-191.668 -2.09,-25 6.25,-52.082 14.58,-68.75 8.33,-16.668 10.42,-35.418 10.42,-41.668 -12.5,2.086 -25,10.418 -33.34,0 -6.25,10.418 -8.33,20.836 -6.25,35.418 2.09,14.582 -16.66,20.832 -20.83,-12.5 -4.17,-33.332 12.38,-45.715 31.25,-64.582 10.42,-10.418 0,-14.586 -10.42,-45.836 -10.41,-31.25 -12.5,-47.914 -10.41,-62.5 -12.5,4.168 -18.75,-2.082 -27.09,12.5 -8.33,14.586 -20.83,16.668 -22.91,-10.414 -2.09,27.082 -18.752,41.664 -29.17,64.582 -10.418,22.918 -14.582,56.25 -18.75,91.668 -4.168,35.414 -8.332,2.082 -45.832,41.664 -37.5,39.586 -41.668,33.336 -35.418,58.336 6.25,25 172.92,193.75 187.5,193.75" style="fill:#000000;fill-opacity:1;fill-rule:nonzero;stroke:none" id="path10797"/><path d="m 979.168,275 c -10.859,7.754 -20.836,-27.082 -31.25,-25 -10.418,2.082 -16.668,-8.332 -14.586,-20.832 2.086,-12.5 -4.894,-4.418 -11.457,-20.836 -4.168,-10.414 -7.801,-45.473 1.043,-39.582 6.25,4.168 12.5,8.332 20.832,-8.332 8.332,-16.668 15.453,-10.953 18.75,-20.836 6.25,12.5 29.168,60.418 39.58,81.25 -2.08,18.75 -8.33,43.75 -22.912,54.168" style="fill:#000000;fill-opacity:1;fill-rule:nonzero;stroke:none" id="path10799"/><path d="m 414.582,158.332 c 8.336,12.5 -4.164,29.168 2.086,50 6.25,20.836 -17.711,-27.082 -85.418,42.711 6.25,-12.5 18.75,-31.879 18.75,-53.125 8.332,-12.5 14.582,-33.336 22.918,-35.418 8.332,-2.082 12.5,-8.332 8.332,-18.75 -4.168,-10.418 0.074,-14.488 10.418,-22.918 14.062,-11.457 13.02,-14.062 12.5,8.336 -0.344,14.582 2.082,25 10.414,29.164" style="fill:#000000;fill-opacity:1;fill-rule:nonzero;stroke:none" id="path10801"/><path d="m 414.582,158.332 c 8.336,12.5 -4.164,29.168 2.086,50 6.25,20.836 -17.711,-27.082 -85.418,42.711 6.25,-12.5 18.75,-31.879 18.75,-53.125 8.332,-12.5 14.582,-33.336 22.918,-35.418 8.332,-2.082 12.5,-8.332 8.332,-18.75 -4.168,-10.418 0.074,-14.488 10.418,-22.918 14.062,-11.457 13.02,-14.062 12.5,8.336 -0.344,14.582 2.082,25 10.414,29.164 z" style="fill:none;stroke:#000000;stroke-opacity:1;stroke-width:6.25;stroke-linecap:butt;stroke-linejoin:miter;stroke-miterlimit:10;stroke-dasharray:none" id="path10803"/><path d="m 781.25,327.082 c 10.418,2.086 54.168,14.586 81.25,-4.164 27.082,-18.75 50.734,-12.984 45.832,-37.5 8.336,-4.168 16.848,-19.875 39.586,-41.668 4.164,1.043 8.332,5.207 -1.043,10.418 -9.375,5.207 -21.875,17.707 -30.207,26.039" style="fill:none;stroke:#000000;stroke-opacity:1;stroke-width:4.16667;stroke-linecap:round;stroke-linejoin:miter;stroke-miterlimit:10;stroke-dasharray:none" id="path10805"/><path d="m 506.25,287.5 c 8.332,-6.25 12.5,-12.5 20.832,-12.5 8.336,0 20.836,-2.082 29.168,4.168 8.332,6.25 10.418,4.164 22.918,-2.086" style="fill:none;stroke:#000000;stroke-opacity:1;stroke-width:4.16667;stroke-linecap:round;stroke-linejoin:miter;stroke-miterlimit:10;stroke-dasharray:none" id="path10807"/><path d="m 1084.38,311.457 c 0,-5.207 3.12,-27.082 8.33,-36.457" style="fill:none;stroke:#000000;stroke-opacity:1;stroke-width:2.08333;stroke-linecap:round;stroke-linejoin:miter;stroke-miterlimit:10;stroke-dasharray:none" id="path10809"/><path d="m 1090.63,311.457 c 0,-5.207 3.12,-27.082 8.33,-36.457" style="fill:none;stroke:#000000;stroke-opacity:1;stroke-width:2.08333;stroke-linecap:round;stroke-linejoin:miter;stroke-miterlimit:10;stroke-dasharray:none" id="path10811"/><path d="m 1085.42,262.5 c 6.25,-2.082 30.21,-14.582 34.37,-42.707 2.09,7.289 10.42,12.5 13.54,-3.125" style="fill:none;stroke:#000000;stroke-opacity:1;stroke-width:3.54167;stroke-linecap:round;stroke-linejoin:miter;stroke-miterlimit:10;stroke-dasharray:none" id="path10813"/><path d="m 1089.58,248.957 c 6.25,-5.207 25,-23.957 22.92,-36.457 4.17,2.082 11.46,-3.125 6.25,-19.793" style="fill:none;stroke:#000000;stroke-opacity:1;stroke-width:2.29167;stroke-linecap:round;stroke-linejoin:miter;stroke-miterlimit:10;stroke-dasharray:none" id="path10815"/><path d="m 1087.5,235.418 c 5.21,-8.336 19.35,-34.242 6.25,-79.168 -7.29,-25 -3.12,-29.168 -2.08,-37.5" style="fill:none;stroke:#000000;stroke-opacity:1;stroke-width:2.29167;stroke-linecap:round;stroke-linejoin:miter;stroke-miterlimit:10;stroke-dasharray:none" id="path10817"/><path d="m 1090.63,228.125 c 2.08,-5.207 -1.05,-29.168 1.04,-46.875 2.08,-17.707 4.16,-20.832 1.04,-29.168" style="fill:none;stroke:#000000;stroke-opacity:1;stroke-width:2.29167;stroke-linecap:round;stroke-linejoin:miter;stroke-miterlimit:10;stroke-dasharray:none" id="path10819"/><path d="m 1056.25,57.293 c 33.33,14.582 91.91,-2.9258 105.21,-6.25 -6.25,-1.043 -8.33,-1.043 -9.38,-5.211 5.21,-2.082 7.3,-2.082 12.5,-5.207 -8.33,0 -38.54,11.457 -55.2,0" style="fill:none;stroke:#000000;stroke-opacity:1;stroke-width:3.125;stroke-linecap:round;stroke-linejoin:miter;stroke-miterlimit:10;stroke-dasharray:none" id="path10821"/><path d="m 1125,58.332 c 0,7.293 2.08,18.75 12.5,20.836 -7.29,1.039 -19.79,-6.25 -20.83,-11.461" style="fill:none;stroke:#000000;stroke-opacity:1;stroke-width:3.125;stroke-linecap:round;stroke-linejoin:miter;stroke-miterlimit:10;stroke-dasharray:none" id="path10823"/><path d="m 1061.46,46.875 c 6.25,2.082 37.5,10.418 53.12,4.168 -3.12,2.082 -6.25,9.375 28.13,1.039" style="fill:none;stroke:#000000;stroke-opacity:1;stroke-width:3.125;stroke-linecap:round;stroke-linejoin:miter;stroke-miterlimit:10;stroke-dasharray:none" id="path10825"/><path d="m 1051.04,55.207 c -5.4,-3.2343 -21.06,-4.25 -34.37,-9.375 -3.55,2.6641 -3.49,8.1055 -3.91,9.375 -3.24,-4.0468 -5.47,-4.9453 -5.47,-10.414 -4.16,8.332 -5.73,14.582 -5.73,14.582 -1.04,-5.207 -5.728,-11.457 -5.728,-16.668 -5.207,6.25 -5.207,7.293 -5.207,11.461 -5.207,-3.125 -7.293,-4.168 -8.332,-8.336 -1.043,-4.164 -4.168,4.168 -15.625,1.043 -5.211,-5.207 12.5,-9.375 28.125,-9.375 -15.625,-2.082 -43.75,1.043 -60.418,-12.5 14.582,1.043 61.457,9.375 82.295,5.207 8.33,3.125 17.71,8.336 30.21,6.25 12.5,-2.082 23.95,8.336 38.54,2.086" style="fill:none;stroke:#000000;stroke-opacity:1;stroke-width:3.125;stroke-linecap:butt;stroke-linejoin:round;stroke-miterlimit:10;stroke-dasharray:none" id="path10827"/><path d="m 1000,40.625 c 4.05,0 21.64,4.5156 28.13,2.082 4.16,2.086 11.45,8.336 18.75,6.25" style="fill:none;stroke:#000000;stroke-opacity:1;stroke-width:3.125;stroke-linecap:round;stroke-linejoin:miter;stroke-miterlimit:10;stroke-dasharray:none" id="path10829"/><path d="m 979.688,50.5195 c 0,7.293 -1.762,29.4922 -9.895,21.3555 C 967.707,69.793 962.5,64.582 947.918,58.332 933.332,52.082 925,42.707 912.5,41.668" style="fill:none;stroke:#000000;stroke-opacity:1;stroke-width:3.125;stroke-linecap:round;stroke-linejoin:round;stroke-miterlimit:10;stroke-dasharray:none" id="path10831"/><path d="m 976.043,53.125 c -7.293,1.043 -6.25,3.125 -39.586,-4.168" style="fill:none;stroke:#000000;stroke-opacity:1;stroke-width:3.125;stroke-linecap:butt;stroke-linejoin:round;stroke-miterlimit:10;stroke-dasharray:none" id="path10833"/><path d="m 758.332,40.625 c 8.336,3.125 25,11.457 37.5,3.125 -5.207,8.332 -9.375,14.582 -14.582,14.582 9.375,0 13.543,5.211 20.832,-8.332 -5.207,11.457 0,17.707 -36.457,23.957 12.5,0 26.043,9.375 39.582,-13.539 6.25,9.375 20.836,31.25 19.793,40.625 0,-8.336 -2.082,-30.211 -8.332,-39.586 7.289,5.211 13.539,8.336 18.75,6.25 -5.211,-6.25 -10.418,-12.5 -9.375,-19.789 8.332,8.332 40.625,42.707 62.5,33.332 C 876.043,78.125 857.293,75 850,58.332 c 9.375,1.043 15.625,3.125 20.832,-4.164 -15.625,0 -15.625,0 -18.75,-5.211 9.375,-1.039 20.836,1.043 27.086,-2.082 8.332,1.043 15.625,2.082 14.582,10.418 3.125,-3.125 5.207,-7.293 1.043,-13.543 8.332,3.125 14.582,7.293 29.164,0" style="fill:none;stroke:#000000;stroke-opacity:1;stroke-width:3.125;stroke-linecap:butt;stroke-linejoin:round;stroke-miterlimit:10;stroke-dasharray:none" id="path10835"/><path d="m 832.293,30.207 c 6.25,-4.164 23.957,-7.289 37.5,-2.082 13.539,5.207 19.789,8.332 36.457,3.125 16.668,-5.207 21.875,-8.332 28.125,-13.543 -1.043,4.168 -1.043,8.336 5.207,5.211 0,5.207 7.293,9.375 16.668,3.125" style="fill:none;stroke:#000000;stroke-opacity:1;stroke-width:3.125;stroke-linecap:butt;stroke-linejoin:round;stroke-miterlimit:10;stroke-dasharray:none" id="path10837"/><path d="m 937.5,106.25 c -1.043,-3.125 -3.125,-9.375 -2.082,-12.5" style="fill:none;stroke:#000000;stroke-opacity:1;stroke-width:1.875;stroke-linecap:butt;stroke-linejoin:round;stroke-miterlimit:10;stroke-dasharray:none" id="path10839"/><path d="m 932.293,104.168 c -1.043,-4.168 -2.086,-7.293 0,-10.418" style="fill:none;stroke:#000000;stroke-opacity:1;stroke-width:1.45833;stroke-linecap:butt;stroke-linejoin:round;stroke-miterlimit:10;stroke-dasharray:none" id="path10841"/><path d="m 877.082,43.2305 c 3.648,1.039 15.106,0.5195 22.398,-3.125 7.29,-3.6485 24.477,6.25 31.77,4.6875 7.293,-1.5625 4.168,2.6015 13.543,-1.043 9.375,-3.6445 10.937,-3.125 16.664,-3.125" style="fill:none;stroke:#000000;stroke-opacity:1;stroke-width:3.125;stroke-linecap:round;stroke-linejoin:round;stroke-miterlimit:10;stroke-dasharray:none" id="path10843"/><path d="m 779.168,50.5195 c -4.168,0.5235 -28.125,5.211 -33.336,-3.125 -1.039,7.293 -4.164,16.1485 -8.852,18.2305 -1.562,-4.168 0.52,-11.457 -3.125,-14.582 C 729.168,61.457 713.543,75 706.77,76.5625 709.895,69.793 721.875,56.7695 723.438,51.043 713.543,56.7695 693.75,62.5 685.418,58.332 688.543,54.6875 700.52,51.043 703.125,44.2695 695.832,43.75 681.25,37.5 673.438,32.8125 c 16.144,0 49.48,5.7305 56.769,0.5195" style="fill:none;stroke:#000000;stroke-opacity:1;stroke-width:3.125;stroke-linecap:round;stroke-linejoin:round;stroke-miterlimit:10;stroke-dasharray:none" id="path10845"/><path d="m 718.75,31.7695 c -6.77,-2.082 -65.625,-17.1875 -79.168,-7.8125 4.168,3.6485 5.211,8.336 11.461,10.9375 -6.25,1.5625 -11.98,2.6055 -19.273,1.5625 4.687,4.6875 13.543,11.461 25,9.8985 -6.77,5.7265 -8.852,13.539 -15.102,14.0625 10.414,1.039 33.852,2.6015 46.875,-6.25" style="fill:none;stroke:#000000;stroke-opacity:1;stroke-width:3.125;stroke-linecap:round;stroke-linejoin:round;stroke-miterlimit:10;stroke-dasharray:none" id="path10847"/><path d="m 741.668,271.875 c 2.082,2.605 2.082,11.457 10.414,11.457 1.563,-1.562 5.211,-2.082 7.293,5.211 2.082,7.289 6.77,8.332 15.625,6.77 8.855,-1.563 10.938,-3.645 15.625,0.519 4.688,4.168 4.688,5.731 13.543,5.211 4.687,3.645 10.937,7.289 16.664,4.687 5.731,-2.605 -10.414,-1.042 -1.562,0 8.855,1.04 17.91,6.758 27.605,2.602 3.645,-1.562 8.332,4.688 13.543,6.25 5.207,1.563 6.77,-1.039 9.375,-3.644" style="fill:none;stroke:#000000;stroke-opacity:1;stroke-width:2.08333;stroke-linecap:round;stroke-linejoin:round;stroke-miterlimit:10;stroke-dasharray:none" id="path10849"/><path d="m 873.438,275 c 0,4.805 16.144,-14.062 21.355,-15.625 5.207,-1.562 5.727,-2.605 1.562,-8.855 4.688,-3.645 9.895,-6.25 17.188,-8.852 -0.523,-2.605 -6.25,-15.105 -2.605,-21.875 -5.731,5.727 -37.5,31.77 -37.5,55.207" style="fill:#000000;fill-opacity:1;fill-rule:nonzero;stroke:none" id="path10851"/><path d="m 449.48,52.6055 c 7.29,5.207 34.375,36.457 69.79,27.082" style="fill:none;stroke:#000000;stroke-opacity:1;stroke-width:3.125;stroke-linecap:round;stroke-linejoin:round;stroke-miterlimit:10;stroke-dasharray:none" id="path10853"/><path d="m 467.707,53.125 c 10.418,6.25 15.625,15.625 28.125,11.457 -7.289,-3.125 -10.414,-6.25 -18.75,-13.539 8.336,2.082 28.125,12.5 43.75,8.332 C 515.625,55.207 500,50 510.418,48.957 c 10.414,-1.039 10.414,-1.039 10.414,-1.039 0,0 -3.125,9.375 19.793,9.375" style="fill:none;stroke:#000000;stroke-opacity:1;stroke-width:2.70833;stroke-linecap:round;stroke-linejoin:round;stroke-miterlimit:10;stroke-dasharray:none" id="path10855"/><path d="m 533.332,46.875 c 18.75,2.082 16.668,23.957 51.043,5.207" style="fill:none;stroke:#000000;stroke-opacity:1;stroke-width:2.70833;stroke-linecap:round;stroke-linejoin:round;stroke-miterlimit:10;stroke-dasharray:none" id="path10857"/><path d="m 407.293,27.082 c 10.414,2.086 69.789,9.375 110.414,1.043 40.625,-8.332 40.625,-8.332 40.625,-8.332 0,0 -51.039,4.164 -40.625,8.332 10.418,4.168 23.961,17.707 42.711,15.625" style="fill:none;stroke:#000000;stroke-opacity:1;stroke-width:3.125;stroke-linecap:round;stroke-linejoin:round;stroke-miterlimit:10;stroke-dasharray:none" id="path10859"/><path d="m 589.582,59.375 c -5.207,8.332 -23.957,8.332 -28.125,13.543 23.961,2.082 21.875,-4.168 35.418,-7.293 13.543,-3.125 6.25,-7.293 3.125,-1.043 -3.125,6.25 -1.043,5.211 -6.25,8.336 19.793,-2.086 24.852,-9.5 30.207,-15.625 7.293,-8.336 9.375,-12.5 15.625,-14.586" style="fill:none;stroke:#000000;stroke-opacity:1;stroke-width:3.125;stroke-linecap:round;stroke-linejoin:round;stroke-miterlimit:10;stroke-dasharray:none" id="path10861"/><path d="m 550,26.043 c 4.168,0 16.668,1.039 21.875,3.125 -11.457,2.082 -21.875,6.25 -5.207,10.414 16.664,4.168 16.664,4.168 22.914,-3.125 4.168,2.086 4.168,12.5 22.918,1.043 18.75,-11.457 19.793,-10.418 29.168,-10.418" style="fill:none;stroke:#000000;stroke-opacity:1;stroke-width:2.08333;stroke-linecap:round;stroke-linejoin:round;stroke-miterlimit:10;stroke-dasharray:none" id="path10863"/><path d="m 448.957,50 c -6.25,1.043 -1.039,9.375 -26.039,6.25 -25,-3.125 -10.418,-5.207 -17.711,-9.375 4.168,8.332 11.461,14.582 22.918,17.707 -7.293,0 -20.832,-2.082 -26.043,-10.414 -4.164,1.039 -6.25,6.25 -10.414,2.082 -2.086,6.25 0,11.457 -9.375,19.793 0,-6.25 -4.168,-10.418 -2.086,-15.625 -2.082,5.207 -1.039,11.457 -21.875,8.332 -9.375,0 -12.5,9.375 -25,2.082 1.043,6.25 -1.039,7.293 5.211,10.418 6.25,3.125 10.414,5.207 -3.125,1.043 -13.543,-4.168 -15.625,0 -23.961,-9.375 -10.414,13.539 -25,28.125 -35.414,28.125 9.375,-8.336 16.664,-11.461 16.664,-20.836 -9.375,2.086 -15.625,13.543 -29.164,12.5 7.289,-8.332 12.5,-9.375 18.75,-18.75" style="fill:none;stroke:#000000;stroke-opacity:1;stroke-width:2.70833;stroke-linecap:round;stroke-linejoin:round;stroke-miterlimit:10;stroke-dasharray:none" id="path10865"/><path d="m 257.293,58.332 c 7.289,1.043 7.289,1.043 7.289,1.043 0,0 44.793,13.543 73.961,4.168" style="fill:none;stroke:#000000;stroke-opacity:1;stroke-width:2.70833;stroke-linecap:round;stroke-linejoin:round;stroke-miterlimit:10;stroke-dasharray:none" id="path10867"/><path d="m 256.25,69.793 c 9.375,1.039 20.832,6.25 39.582,4.164" style="fill:none;stroke:#000000;stroke-opacity:1;stroke-width:2.08333;stroke-linecap:round;stroke-linejoin:round;stroke-miterlimit:10;stroke-dasharray:none" id="path10869"/><path d="m 318.75,265.625 c -1.043,8.332 -2.082,11.457 -3.125,31.25 -1.043,19.793 -5.207,17.707 -9.375,31.25 -4.168,13.543 -1.043,11.457 -6.25,21.875 4.168,-17.707 8.332,-30.207 7.293,-47.918 -1.043,-17.707 -5.211,-21.875 1.039,-29.164 6.25,-7.293 2.086,-1.043 10.418,-7.293 z" style="fill:none;stroke:#000000;stroke-opacity:1;stroke-width:2.29167;stroke-linecap:round;stroke-linejoin:round;stroke-miterlimit:10;stroke-dasharray:none" id="path10871"/><path d="m 330.207,359.375 c 5.211,0 12.5,-1.043 13.543,2.082 1.043,3.125 -3.125,7.293 -7.293,2.086 -4.164,-5.211 -5.207,-6.25 -4.164,-10.418 1.039,-4.168 9.375,-5.207 14.582,0 -4.168,-10.418 -5.207,-28.125 -11.457,-32.293 3.125,-1.039 13.539,4.168 11.457,-1.039 -2.082,-5.211 -6.25,-12.5 -1.043,-14.586 5.211,-2.082 10.418,1.043 12.5,6.25 2.086,5.211 2.086,2.086 2.086,9.375" style="fill:none;stroke:#000000;stroke-opacity:1;stroke-width:2.29167;stroke-linecap:round;stroke-linejoin:round;stroke-miterlimit:10;stroke-dasharray:none" id="path10873"/><path d="m 359.375,334.375 c 2.082,6.25 6.25,6.25 12.5,-1.043 -4.168,1.043 -7.293,2.086 -12.5,1.043 z" style="fill:none;stroke:#000000;stroke-opacity:1;stroke-width:2.29167;stroke-linecap:round;stroke-linejoin:round;stroke-miterlimit:10;stroke-dasharray:none" id="path10875"/><path d="m 335.418,320.832 c -3.758,0 -6.25,-10.414 -3.125,-13.539 3.125,-3.125 3.125,-3.125 3.125,-3.125 0,0 5.207,7.289 5.207,11.457 0,4.168 -2.082,5.207 -5.207,5.207 z" style="fill:none;stroke:#000000;stroke-opacity:1;stroke-width:2.29167;stroke-linecap:round;stroke-linejoin:round;stroke-miterlimit:10;stroke-dasharray:none" id="path10877"/><path d="m 378.125,301.043 c -5.207,4.164 -17.707,4.164 -17.707,-8.336" style="fill:none;stroke:#000000;stroke-opacity:1;stroke-width:2.29167;stroke-linecap:round;stroke-linejoin:round;stroke-miterlimit:10;stroke-dasharray:none" id="path10879"/><path d="m 379.168,295.832 c -3.125,2.086 -17.711,6.25 -18.75,-8.332 -1.043,-14.582 -2.086,-9.375 1.039,-13.543 5.211,12.5 4.168,21.875 15.625,18.75" style="fill:none;stroke:#000000;stroke-opacity:1;stroke-width:2.29167;stroke-linecap:round;stroke-linejoin:round;stroke-miterlimit:10;stroke-dasharray:none" id="path10881"/><path d="m 387.5,281.25 c -7.293,2.082 -14.582,2.082 -18.75,-3.125 4.168,-2.082 4.168,1.043 11.457,-3.125 -4.164,-6.25 -4.164,-9.375 -3.125,-13.543 8.336,7.293 11.461,10.418 16.668,8.336 -6.25,-4.168 -7.293,-8.336 -6.25,-14.586 4.168,5.211 8.332,9.375 12.5,9.375 -5.207,-8.332 -7.293,-10.414 -7.293,-15.625 4.168,4.168 3.125,6.25 9.375,8.336" style="fill:none;stroke:#000000;stroke-opacity:1;stroke-width:2.29167;stroke-linecap:round;stroke-linejoin:round;stroke-miterlimit:10;stroke-dasharray:none" id="path10883"/><path d="m 332.293,419.793 c 0,-6.25 -1.043,-13.543 10.414,-14.586 11.461,-1.039 4.168,7.293 -4.164,6.25 -8.336,-1.039 -4.168,-12.5 -1.043,-16.664 3.125,-4.168 9.375,1.039 4.168,4.164 -5.211,3.125 -11.461,1.043 -11.461,-5.207 0,-6.25 3.125,-13.543 6.25,-15.625" style="fill:none;stroke:#000000;stroke-opacity:1;stroke-width:2.29167;stroke-linecap:round;stroke-linejoin:round;stroke-miterlimit:10;stroke-dasharray:none" id="path10885"/><path d="m 284.375,396.875 c 8.332,1.043 15.625,4.168 17.707,11.457 2.086,-4.164 15.004,-17.078 -4.164,-21.875 -12.5,-3.125 -10.418,7.293 -10.418,7.293 6.25,0 12.5,1.043 13.543,4.168 -1.043,-5.211 -2.086,-8.336 -5.211,-8.336" style="fill:none;stroke:#000000;stroke-opacity:1;stroke-width:2.29167;stroke-linecap:round;stroke-linejoin:round;stroke-miterlimit:10;stroke-dasharray:none" id="path10887"/><path d="m 270.832,443.75 c 4.168,-2.082 12.5,1.043 12.5,6.25 1.043,-5.207 6.25,-20.832 -3.125,-21.875 -9.375,-1.043 -8.332,3.125 -8.332,7.293 3.125,-1.043 5.207,-1.043 8.332,4.164" style="fill:none;stroke:#000000;stroke-opacity:1;stroke-width:2.29167;stroke-linecap:round;stroke-linejoin:round;stroke-miterlimit:10;stroke-dasharray:none" id="path10889"/><path d="m 253.125,460.418 c 4.168,-1.043 12.5,0 13.543,6.25 0,-6.25 0,-25 -13.543,-6.25 z" style="fill:none;stroke:#000000;stroke-opacity:1;stroke-width:2.29167;stroke-linecap:round;stroke-linejoin:round;stroke-miterlimit:10;stroke-dasharray:none" id="path10891"/><path d="m 270.832,533.855 c -1.039,-2.605 -11.977,-26.042 -22.914,-25.523 2.082,-2.602 6.25,-9.375 -2.605,-14.582 5.207,-0.52 10.417,3.125 7.292,-2.605 -3.125,-5.727 -7.812,-3.125 -11.46,-4.165 1.043,-3.125 3.648,-10.937 -1.04,-13.542" style="fill:none;stroke:#000000;stroke-opacity:1;stroke-width:2.29167;stroke-linecap:round;stroke-linejoin:round;stroke-miterlimit:10;stroke-dasharray:none" id="path10893"/><path d="m 301.043,680.207 c -7.293,4.168 -25,25 -32.293,27.086 15.625,28.125 27.082,21.875 45.832,22.914 18.75,1.043 14.586,-3.125 14.586,-8.332 -1.043,-6.25 -6.25,-18.75 -11.461,-21.875 -0.441,0.664 -8.242,-16.98 -16.664,-19.793" style="fill:#ffffff;fill-opacity:1;fill-rule:nonzero;stroke:none" id="path10895"/><path d="m 301.043,680.207 c -7.293,4.168 -25,25 -32.293,27.086 15.625,28.125 27.082,21.875 45.832,22.914 18.75,1.043 14.586,-3.125 14.586,-8.332 -1.043,-6.25 -6.25,-18.75 -11.461,-21.875 -0.441,0.664 -8.242,-16.98 -16.664,-19.793 z" style="fill:none;stroke:#000000;stroke-opacity:1;stroke-width:3.125;stroke-linecap:round;stroke-linejoin:round;stroke-miterlimit:10;stroke-dasharray:none" id="path10897"/><path d="m 282.293,700 c 3.125,5.207 18.75,20.832 28.125,20.832 -4.168,-4.164 -1.043,-7.289 3.125,-6.25 -9.375,-2.082 -12.5,-2.082 -18.75,-8.332" style="fill:none;stroke:#000000;stroke-opacity:1;stroke-width:3.125;stroke-linecap:round;stroke-linejoin:round;stroke-miterlimit:10;stroke-dasharray:none" id="path10899"/><path d="m 245.832,714.582 c 7.293,0 41.301,-9.582 61.461,-36.457 6.25,-8.332 -7.293,-1.043 -13.543,1.043 -6.25,2.082 -46.875,15.625 -61.457,8.332 0,11.457 7.289,27.082 13.539,27.082" style="fill:#ffffff;fill-opacity:1;fill-rule:nonzero;stroke:none" id="path10901"/><path d="m 245.832,714.582 c 7.293,0 41.301,-9.582 61.461,-36.457 6.25,-8.332 -7.293,-1.043 -13.543,1.043 -6.25,2.082 -46.875,15.625 -61.457,8.332 0,11.457 7.289,27.082 13.539,27.082 z" style="fill:none;stroke:#000000;stroke-opacity:1;stroke-width:3.125;stroke-linecap:round;stroke-linejoin:round;stroke-miterlimit:10;stroke-dasharray:none" id="path10903"/><path d="M 166.668,752.082 C 161.457,750 156.25,748.957 153.125,744.793" style="fill:#ffffff;fill-opacity:1;fill-rule:nonzero;stroke:none" id="path10905"/><path d="M 166.668,752.082 C 161.457,750 156.25,748.957 153.125,744.793" style="fill:none;stroke:#000000;stroke-opacity:1;stroke-width:3.125;stroke-linecap:round;stroke-linejoin:round;stroke-miterlimit:10;stroke-dasharray:none" id="path10907"/><path d="m 152.082,754.168 c -5.207,-2.086 -10.414,-3.125 -13.539,-7.293" style="fill:#ffffff;fill-opacity:1;fill-rule:nonzero;stroke:none" id="path10909"/><path d="m 152.082,754.168 c -5.207,-2.086 -10.414,-3.125 -13.539,-7.293" style="fill:none;stroke:#000000;stroke-opacity:1;stroke-width:3.125;stroke-linecap:round;stroke-linejoin:round;stroke-miterlimit:10;stroke-dasharray:none" id="path10911"/><path d="M 151.043,752.082 C 145.832,750 140.625,748.957 137.5,744.793" style="fill:#ffffff;fill-opacity:1;fill-rule:nonzero;stroke:none" id="path10913"/><path d="M 151.043,752.082 C 145.832,750 140.625,748.957 137.5,744.793" style="fill:none;stroke:#000000;stroke-opacity:1;stroke-width:3.125;stroke-linecap:round;stroke-linejoin:round;stroke-miterlimit:10;stroke-dasharray:none" id="path10915"/><path d="m 132.293,655.207 c -2.816,-4.504 8.332,23.961 16.664,2.086 -5.207,1.039 -11.457,6.25 -16.664,-2.086" style="fill:#ffffff;fill-opacity:1;fill-rule:nonzero;stroke:none" id="path10917"/><path d="m 132.293,655.207 c -2.816,-4.504 8.332,23.961 16.664,2.086 -5.207,1.039 -11.457,6.25 -16.664,-2.086 z" style="fill:none;stroke:#000000;stroke-opacity:1;stroke-width:3.125;stroke-linecap:round;stroke-linejoin:round;stroke-miterlimit:10;stroke-dasharray:none" id="path10919"/><path d="m 197.918,734.375 c -5.211,0 -20.152,-8.332 -6.25,-8.332 3.125,0 6.25,5.207 12.5,4.164 6.25,-1.039 0,-3.125 -1.043,-6.25 6.25,3.125 11.457,4.168 12.5,-2.082 7.293,7.293 10.418,5.207 11.457,-3.125 8.336,1.043 17.711,9.375 29.168,0 -2.082,6.25 -5.207,13.543 -19.793,8.332" style="fill:none;stroke:#000000;stroke-opacity:1;stroke-width:2.29167;stroke-linecap:round;stroke-linejoin:round;stroke-miterlimit:10;stroke-dasharray:none" id="path10921"/><path d="m 167.707,701.043 c 3.125,-3.125 14.586,-6.25 20.836,-4.168 6.25,2.082 -1.043,6.25 -9.375,3.125" style="fill:none;stroke:#000000;stroke-opacity:1;stroke-width:2.29167;stroke-linecap:round;stroke-linejoin:round;stroke-miterlimit:10;stroke-dasharray:none" id="path10923"/><path d="m 145.832,681.25 c 4.168,-4.168 17.711,-6.25 5.211,0" style="fill:none;stroke:#000000;stroke-opacity:1;stroke-width:2.29167;stroke-linecap:round;stroke-linejoin:round;stroke-miterlimit:10;stroke-dasharray:none" id="path10925"/><path d="m 175,675 c 6.25,1.043 11.457,5.207 9.375,8.332 -2.082,3.125 -8.332,1.043 -7.293,-4.164" style="fill:none;stroke:#000000;stroke-opacity:1;stroke-width:2.29167;stroke-linecap:round;stroke-linejoin:round;stroke-miterlimit:10;stroke-dasharray:none" id="path10927"/><path d="m 193.75,657.293 c -1.043,5.207 -2.082,10.414 5.207,10.414 7.293,0 3.125,-6.25 -1.039,-7.289" style="fill:none;stroke:#000000;stroke-opacity:1;stroke-width:2.29167;stroke-linecap:round;stroke-linejoin:round;stroke-miterlimit:10;stroke-dasharray:none" id="path10929"/><path d="m 223.957,686.457 c -2.082,5.211 -7.289,7.293 -12.5,4.168 3.125,-2.082 10.418,-5.207 11.461,-10.418 7.289,-4.164 16.664,-5.207 18.75,-15.625 -8.336,4.168 -12.5,10.418 -19.793,7.293 3.125,-4.168 6.25,-3.125 7.293,-8.332 4.164,2.082 2.082,3.125 6.25,2.082" style="fill:none;stroke:#000000;stroke-opacity:1;stroke-width:2.29167;stroke-linecap:round;stroke-linejoin:round;stroke-miterlimit:10;stroke-dasharray:none" id="path10931"/><path d="m 210.418,671.875 c -3.207,2.672 10.414,0 12.5,-6.25 -6.25,0 -6.25,1.043 -12.5,6.25 z" style="fill:none;stroke:#000000;stroke-opacity:1;stroke-width:2.29167;stroke-linecap:round;stroke-linejoin:round;stroke-miterlimit:10;stroke-dasharray:none" id="path10933"/><path d="m 250,666.668 c 4.168,-3.125 7.293,-11.461 1.043,-15.625" style="fill:none;stroke:#000000;stroke-opacity:1;stroke-width:2.29167;stroke-linecap:round;stroke-linejoin:round;stroke-miterlimit:10;stroke-dasharray:none" id="path10935"/><path d="m 247.918,642.707 c -3.125,-2.082 -8.336,-12.5 0,-12.5 -3.125,-1.039 -4.168,-4.164 0,-5.207" style="fill:none;stroke:#000000;stroke-opacity:1;stroke-width:2.29167;stroke-linecap:round;stroke-linejoin:round;stroke-miterlimit:10;stroke-dasharray:none" id="path10937"/><path d="m 185.418,633.332 c -0.523,-2.082 -1.563,-8.332 7.812,-6.25 9.375,2.086 20.313,6.25 20.313,21.875 0,5.211 -3.125,3.648 -6.773,2.606 -3.645,-1.043 -15.102,1.562 -21.352,-18.231" style="fill:#000000;fill-opacity:1;fill-rule:nonzero;stroke:none" id="path10939"/><path d="m 190.625,636.457 c -0.52,-1.562 -2.082,-5.207 -2.082,-5.207 2.082,0.52 4.687,1.043 6.77,1.563 -2.083,1.042 -5.208,0.519 -4.688,3.644" style="fill:#ffffff;fill-opacity:1;fill-rule:nonzero;stroke:none" id="path10941"/><path d="m 188.02,651.563 c -3.125,-1.043 -7.813,-6.77 -8.852,-10.938" style="fill:#000000;fill-opacity:1;fill-rule:nonzero;stroke:none" id="path10943"/><path d="m 171.875,627.082 c -3.645,0 -13.543,-3.644 -14.062,-14.582 -0.52,-10.937 4.167,-2.082 6.25,0.52 2.082,2.605 2.082,12.5 7.812,14.062" style="fill:#000000;fill-opacity:1;fill-rule:nonzero;stroke:none" id="path10945"/><path d="m 232.293,637.5 c -4.168,-5.207 -5.211,-8.332 -8.336,-19.793 -3.125,-11.457 -22.914,-5.207 -30.207,-4.164 0,0 -3.125,-9.375 -8.332,-14.586 -5.211,-5.207 -7.293,1.043 -12.5,2.086 -5.211,1.039 -7.293,-2.086 -7.293,-8.336 0,-6.25 -5.207,-2.082 -9.375,-1.039 -1.043,-3.125 -3.125,-5.211 -7.293,-5.211 0,-4.164 -2.082,-8.332 -6.25,-8.332 7.293,-5.207 18.75,-7.293 11.461,-12.5 2.082,-9.375 12.5,-14.582 -7.293,-23.957" style="fill:none;stroke:#000000;stroke-opacity:1;stroke-width:2.29167;stroke-linecap:round;stroke-linejoin:round;stroke-miterlimit:10;stroke-dasharray:none" id="path10947"/><path d="m 221.875,626.043 c 2.082,-5.211 3.125,-16.668 -14.582,-20.836 -1.043,-5.207 -9.375,-7.289 -12.5,-5.207 0,-4.168 0,-9.375 -6.25,-8.332 -1.043,-5.211 -5.211,-8.336 -10.418,-5.211 1.043,-7.289 -4.168,-12.5 -4.168,-12.5 2.086,-6.25 -6.25,-8.332 -12.5,-5.207 -1.039,-4.168 -6.25,-12.5 -10.414,-7.293" style="fill:none;stroke:#000000;stroke-opacity:1;stroke-width:2.29167;stroke-linecap:round;stroke-linejoin:round;stroke-miterlimit:10;stroke-dasharray:none" id="path10949"/><path d="m 203.125,566.668 c 5.207,2.082 16.668,9.375 14.582,21.875 6.25,-3.125 9.375,-8.336 13.543,-2.086 3.125,-8.332 10.418,-3.125 -8.332,-19.789" style="fill:none;stroke:#000000;stroke-opacity:1;stroke-width:2.29167;stroke-linecap:round;stroke-linejoin:round;stroke-miterlimit:10;stroke-dasharray:none" id="path10951"/><path d="m 82.293,656.25 -4.168,1.043" style="fill:none;stroke:#000000;stroke-opacity:1;stroke-width:2.29167;stroke-linecap:round;stroke-linejoin:round;stroke-miterlimit:10;stroke-dasharray:none" id="path10953"/><path d="m 85.418,569.793 c 2.082,-3.125 5.207,-5.211 10.414,-4.168" style="fill:none;stroke:#000000;stroke-opacity:1;stroke-width:2.29167;stroke-linecap:round;stroke-linejoin:round;stroke-miterlimit:10;stroke-dasharray:none" id="path10955"/><path d="m 65.625,561.457 c 3.125,-5.207 5.207,-4.164 9.375,-2.082 2.082,-7.293 4.168,-12.5 11.457,-7.293 5.211,-1.039 9.375,-5.207 15.625,-1.039 0,-6.25 6.25,-10.418 17.711,3.125" style="fill:none;stroke:#000000;stroke-opacity:1;stroke-width:2.29167;stroke-linecap:round;stroke-linejoin:round;stroke-miterlimit:10;stroke-dasharray:none" id="path10957"/><path d="m 117.707,550 c -1.039,-4.168 -2.082,-8.332 -8.332,-8.332 -6.25,0 -9.375,1.039 -10.418,6.25 3.125,-7.293 -5.207,-20.836 28.125,-18.75 -9.375,-5.211 -18.75,-7.293 -25,-5.211 -6.25,2.086 -14.582,4.168 -18.75,0" style="fill:none;stroke:#000000;stroke-opacity:1;stroke-width:2.29167;stroke-linecap:round;stroke-linejoin:round;stroke-miterlimit:10;stroke-dasharray:none" id="path10959"/><path d="m 79.168,548.957 c 1.8242,-2.734 -4.168,-13.539 -7.293,-9.375 -4.5508,6.066 -11.457,13.543 -7.293,13.543 4.168,0 9.375,2.082 9.375,2.082 2.086,-3.125 3.125,-3.125 5.211,-6.25 z" style="fill:none;stroke:#000000;stroke-opacity:1;stroke-width:2.29167;stroke-linecap:round;stroke-linejoin:round;stroke-miterlimit:10;stroke-dasharray:none" id="path10961"/><path d="m 150,516.668 c 5.207,3.125 20.832,16.664 23.957,26.039 -6.25,-3.125 -6.25,-4.164 -7.289,-7.289 0,7.289 3.125,13.539 7.289,14.582" style="fill:none;stroke:#000000;stroke-opacity:1;stroke-width:2.29167;stroke-linecap:round;stroke-linejoin:round;stroke-miterlimit:10;stroke-dasharray:none" id="path10963"/><path d="m 160.418,521.875 c 4.164,3.125 8.332,3.125 10.414,-4.168 2.086,-7.289 9.375,-5.207 12.5,-2.082 3.125,3.125 0,4.168 -3.125,-2.082 -3.125,-6.25 -12.5,-11.461 -19.789,-8.336" style="fill:none;stroke:#000000;stroke-opacity:1;stroke-width:2.29167;stroke-linecap:round;stroke-linejoin:round;stroke-miterlimit:10;stroke-dasharray:none" id="path10965"/><path d="m 209.375,521.875 c -7.293,0 -22.918,6.25 -17.707,-8.332 5.207,-14.586 0,-17.711 -5.211,-18.75 -5.207,-1.043 -11.457,-2.086 -16.664,1.039 7.289,-7.289 7.289,-15.625 14.582,-16.664 -2.082,7.289 -7.293,9.375 -2.082,11.457" style="fill:none;stroke:#000000;stroke-opacity:1;stroke-width:2.29167;stroke-linecap:round;stroke-linejoin:round;stroke-miterlimit:10;stroke-dasharray:none" id="path10967"/><path d="m 193.75,473.957 c 6.25,0 19.793,0 25,10.418 9.375,8.332 12.5,13.543 1.043,17.707 10.414,3.125 21.875,5.211 20.832,15.625 1.043,-12.5 -4.168,-15.625 -8.332,-18.75 -2.086,-11.457 -7.293,-19.789 -11.461,-19.789 0,-5.211 0,-9.375 -3.125,-9.898 -13.574,-2.258 20.313,-2.602 25.523,0.523 4.594,2.762 2.083,10.414 1.04,13.539 3.648,1.043 8.335,-1.562 11.46,4.168 3.125,5.73 -2.085,2.082 -7.292,2.605 8.855,5.208 4.687,11.977 2.605,14.583 10.937,-0.52 19.27,19.792 20.312,22.394" style="fill:none;stroke:#000000;stroke-opacity:1;stroke-width:2.29167;stroke-linecap:round;stroke-linejoin:round;stroke-miterlimit:10;stroke-dasharray:none" id="path10969"/></g></g></svg>