<?xml version="1.0" encoding="utf-8"?>
<!-- Generator: Adobe Illustrator 23.0.0, SVG Export Plug-In . SVG Version: 6.00 Build 0)  -->
<svg version="1.1"
	 id="Main" inkscape:version="0.92.1 r15371"
	 sodipodi:docname="Milliron X.svg"
	 xmlns:cc="http://creativecommons.org/ns#"
	 xmlns:dc="http://purl.org/dc/elements/1.1/"
	 xmlns:inkscape="http://www.inkscape.org/namespaces/inkscape"
	 xmlns:rdf="http://www.w3.org/1999/02/22-rdf-syntax-ns#"
	 xmlns:sodipodi="http://sodipodi.sourceforge.net/DTD/sodipodi-0.dtd"
	 xmlns:svg="http://www.w3.org/2000/svg"
	 xmlns="http://www.w3.org/2000/svg"
	 xmlns:xlink="http://www.w3.org/1999/xlink"
	 x="0px" y="0px" viewBox="0 0 86.1 86.1"
	 style="enable-background:new 0 0 86.1 86.1;"
	 width="29.935179mm"
     height="8.7677584mm"
	 xml:space="preserve">
<style type="text/css">
	.st0{fill:none;stroke:#000000;stroke-width:6;stroke-linecap:round;stroke-linejoin:round;}
</style>
<g id="Brand" transform="translate(-201.95728,-469.32877)" inkscape:groupmode="layer" inkscape:label="Layer 1">
	
		<path id="Milliron" inkscape:connector-curvature="0" inkscape:original-d="m 206.56251,485.17471 h 20 c 5,0 13.85903,-4.10006 15,-10 3.82765,-19.79272 9.87303,10 15,10 h 20" inkscape:path-effect="#path-effect4154" sodipodi:nodetypes="csssc" class="st0" d="
		M205.6,512.6h16c1.3,0,2.6-0.1,3.8-0.5c1.2-0.5,2.2-1.3,3-2.3s1.3-2.2,2.1-3.2c0.4-0.5,0.8-1,1.4-1.3c0.5-0.4,1.2-0.6,1.8-0.6
		s1.3,0.2,1.8,0.6s1,0.8,1.4,1.3c0.8,1,1.3,2.2,2.1,3.2s1.8,1.9,3,2.3c1.2,0.5,2.5,0.5,3.8,0.5h16"/>
	<path id="X_Stroke_1" inkscape:connector-curvature="0" sodipodi:nodetypes="cc" class="st0" d="M268.4,522.4l16-20"/>
	<path id="X_Stroke_2" inkscape:connector-curvature="0" sodipodi:nodetypes="cc" class="st0" d="M268.4,502.4l16,20"/>
</g>
</svg>
